name rise42.5664peak47.7979fall81.9185.mot
datacolumns 19
datarows 32
range 10.44162800000000 10.49995900000000
endheader
time	ground_force1_vx	ground_force1_vy	ground_force1_vz	ground_force1_px	ground_force1_py	ground_force1_pz	ground_force2_vx	ground_force2_vy	ground_force2_vz	ground_force2_px	ground_force2_py	ground_force2_pz	ground_torque1_x	ground_torque1_y	ground_torque1_z	ground_torque2_x	ground_torque2_y	ground_torque2_z	
10.44162800000000	-3.27137200000000	41.06022600000000	-8.87160400000000	0.25433600000000	0.00000000000000	0.07763700000000	-46.74188800000000	768.68964400000004	-49.84870800000000	0.07749600000000	0.00000000000000	-0.08538400000000	0.00000000000000	-5.41945400000000	0.00000000000000	0.00000000000000	-13.67234500000000	0.00000000000000	
10.44329500000000	-3.43064500000000	48.45886300000000	-9.96923700000000	0.26061600000000	0.00000000000000	0.07890200000000	-47.27569000000000	765.25580300000001	-49.33470400000000	0.07681400000000	0.00000000000000	-0.08525800000000	0.00000000000000	-6.18484700000000	0.00000000000000	0.00000000000000	-13.63171400000000	0.00000000000000	
10.44496200000000	-3.48246900000000	56.03800000000000	-10.96374600000000	0.26621200000000	0.00000000000000	0.08002000000000	-47.82267600000000	761.66112599999997	-48.79022700000000	0.07613000000000	0.00000000000000	-0.08512600000000	0.00000000000000	-6.90374100000000	0.00000000000000	0.00000000000000	-13.59354100000000	0.00000000000000	
10.44662300000000	-3.41626700000000	63.70690000000000	-11.83148500000000	0.27124700000000	0.00000000000000	0.08101800000000	-48.38160400000000	757.90392499999996	-48.21546400000000	0.07544700000000	0.00000000000000	-0.08498900000000	0.00000000000000	-7.55989400000000	0.00000000000000	0.00000000000000	-13.55772100000000	0.00000000000000	
10.44829000000000	-3.22621300000000	71.39476700000000	-12.55675600000000	0.27581700000000	0.00000000000000	0.08191400000000	-48.95113100000000	753.98261800000000	-47.61067600000000	0.07476500000000	0.00000000000000	-0.08484700000000	0.00000000000000	-8.14182400000000	0.00000000000000	0.00000000000000	-13.52413200000000	0.00000000000000	
10.44996000000000	-2.91105000000000	79.05324400000001	-13.13191300000000	0.27999400000000	0.00000000000000	0.08272600000000	-49.52981300000000	749.89573099999996	-46.97619300000000	0.07408500000000	0.00000000000000	-0.08469900000000	0.00000000000000	-8.64301200000000	0.00000000000000	0.00000000000000	-13.49262900000000	0.00000000000000	
10.45163000000000	-2.47358400000000	86.65662800000000	-13.55679600000000	0.28383700000000	0.00000000000000	0.08346500000000	-50.11611300000000	745.64190199999996	-46.31241700000000	0.07340700000000	0.00000000000000	-0.08454600000000	0.00000000000000	-9.06167600000000	0.00000000000000	0.00000000000000	-13.46304900000000	0.00000000000000	
10.45330200000000	-1.91993000000000	94.20019800000000	-13.83764100000000	0.28739300000000	0.00000000000000	0.08414300000000	-50.70840200000000	741.21988499999998	-45.61982000000000	0.07273300000000	0.00000000000000	-0.08438800000000	0.00000000000000	-9.40019100000000	0.00000000000000	0.00000000000000	-13.43520700000000	0.00000000000000	
10.45495500000000	-1.25861800000000	101.69710400000000	-13.98565900000000	0.29069800000000	0.00000000000000	0.08476600000000	-51.30496500000000	736.62855700000000	-44.89894700000000	0.07206300000000	0.00000000000000	-0.08422400000000	0.00000000000000	-9.66426800000000	0.00000000000000	0.00000000000000	-13.40890000000000	0.00000000000000	
10.45662700000000	-0.49966800000000	109.17431999999999	-14.01545600000000	0.29378400000000	0.00000000000000	0.08534300000000	-51.90400300000000	731.86691599999995	-44.15041200000000	0.07139900000000	0.00000000000000	-0.08405400000000	0.00000000000000	-9.86199800000000	0.00000000000000	0.00000000000000	-13.38390600000000	0.00000000000000	
10.45829000000000	0.34629800000000	116.66818600000001	-13.94345200000000	0.29667600000000	0.00000000000000	0.08587800000000	-52.50364300000000	726.93409599999995	-43.37490000000000	0.07074000000000	0.00000000000000	-0.08387800000000	0.00000000000000	-10.00286900000000	0.00000000000000	0.00000000000000	-13.35998600000000	0.00000000000000	
10.45996100000000	1.26883300000000	124.21994100000001	-13.78642200000000	0.29939400000000	0.00000000000000	0.08637700000000	-53.10194200000000	721.82936199999995	-42.57316200000000	0.07008800000000	0.00000000000000	-0.08369700000000	0.00000000000000	-10.09683900000000	0.00000000000000	0.00000000000000	-13.33688200000000	0.00000000000000	
10.46829200000000	2.25829100000000	131.87163500000000	-13.56026900000000	0.30195500000000	0.00000000000000	0.08684400000000	-53.69689000000000	716.55212500000005	-41.74602000000000	0.06944400000000	0.00000000000000	-0.08351000000000	0.00000000000000	-10.15352500000000	0.00000000000000	0.00000000000000	-13.31432100000000	0.00000000000000	
10.46995600000000	3.30627500000000	139.66264799999999	-13.27906400000000	0.30437400000000	0.00000000000000	0.08728200000000	-54.28642200000000	711.10194500000000	-40.89436000000000	0.06880800000000	0.00000000000000	-0.08331800000000	0.00000000000000	-10.18156300000000	0.00000000000000	0.00000000000000	-13.29201500000000	0.00000000000000	
10.47162800000000	4.40591300000000	147.62700699999999	-12.95440600000000	0.30666200000000	0.00000000000000	0.08769300000000	-54.86841900000000	705.47853899999996	-40.01913200000000	0.06818100000000	0.00000000000000	-0.08312000000000	0.00000000000000	-10.18814900000000	0.00000000000000	0.00000000000000	-13.26966000000000	0.00000000000000	
10.47329700000000	5.55195500000000	155.79153700000001	-12.59507400000000	0.30883000000000	0.00000000000000	0.08808200000000	-55.44072100000000	699.68178899999998	-39.12135000000000	0.06756400000000	0.00000000000000	-0.08291600000000	0.00000000000000	-10.17877500000000	0.00000000000000	0.00000000000000	-13.24694000000000	0.00000000000000	
10.47496300000000	6.74073200000000	164.17485800000000	-12.20695400000000	0.31088600000000	0.00000000000000	0.08844900000000	-56.00112900000000	693.71175000000005	-38.20208500000000	0.06695800000000	0.00000000000000	-0.08270600000000	0.00000000000000	-10.15713600000000	0.00000000000000	0.00000000000000	-13.22352800000000	0.00000000000000	
10.47662700000000	7.96999600000000	172.78714099999999	-11.79319900000000	0.31283700000000	0.00000000000000	0.08879700000000	-56.54741200000000	687.56865700000003	-37.26246800000000	0.06636300000000	0.00000000000000	-0.08249000000000	0.00000000000000	-10.12519700000000	0.00000000000000	0.00000000000000	-13.19908500000000	0.00000000000000	
10.47828900000000	9.23867300000000	181.63049599999999	-11.35456200000000	0.31468900000000	0.00000000000000	0.08912800000000	-57.07732200000000	681.25293299999998	-36.30368200000000	0.06577900000000	0.00000000000000	-0.08226900000000	0.00000000000000	-10.08336700000000	0.00000000000000	0.00000000000000	-13.17326600000000	0.00000000000000	
10.47995800000000	10.54657300000000	190.69986000000000	-10.88985300000000	0.31644800000000	0.00000000000000	0.08944200000000	-57.58859200000000	674.76519399999995	-35.32696700000000	0.06520800000000	0.00000000000000	-0.08204200000000	0.00000000000000	-10.03077600000000	0.00000000000000	0.00000000000000	-13.14571500000000	0.00000000000000	
10.48162900000000	11.89407400000000	199.98421700000000	-10.39645000000000	0.31811700000000	0.00000000000000	0.08974200000000	-58.07894900000000	668.10625500000003	-34.33360700000000	0.06464900000000	0.00000000000000	-0.08181000000000	0.00000000000000	-9.96558300000000	0.00000000000000	0.00000000000000	-13.11607200000000	0.00000000000000	
10.48329000000000	13.28181800000000	209.46800200000001	-9.87083400000000	0.31970000000000	0.00000000000000	0.09002800000000	-58.54612200000000	661.27713700000004	-33.32493500000000	0.06410400000000	0.00000000000000	-0.08157100000000	0.00000000000000	-9.88531400000000	0.00000000000000	0.00000000000000	-13.08397500000000	0.00000000000000	
10.48496300000000	14.71043700000000	219.13254300000000	-9.30908900000000	0.32120000000000	0.00000000000000	0.09030200000000	-58.98785100000000	654.27906299999995	-32.30232900000000	0.06357200000000	0.00000000000000	-0.08132800000000	0.00000000000000	-9.78718000000000	0.00000000000000	0.00000000000000	-13.04905600000000	0.00000000000000	
10.48662500000000	16.18032200000000	228.95744500000001	-8.70734000000000	0.32261900000000	0.00000000000000	0.09056400000000	-59.40189000000000	647.11346600000002	-31.26720400000000	0.06305400000000	0.00000000000000	-0.08107900000000	0.00000000000000	-9.66836900000000	0.00000000000000	0.00000000000000	-13.01094900000000	0.00000000000000	
10.48829300000000	17.69144500000000	238.92180500000001	-8.06211900000000	0.32396000000000	0.00000000000000	0.09081500000000	-59.78602300000000	639.78198399999997	-30.22101700000000	0.06255000000000	0.00000000000000	-0.08082400000000	0.00000000000000	-9.52628300000000	0.00000000000000	0.00000000000000	-12.96928900000000	0.00000000000000	
10.48996300000000	19.24324100000000	249.00522100000001	-7.37062800000000	0.32522500000000	0.00000000000000	0.09105700000000	-60.13806800000000	632.28645900000004	-29.16525600000000	0.06206100000000	0.00000000000000	-0.08056400000000	0.00000000000000	-9.35872200000000	0.00000000000000	0.00000000000000	-12.92371500000000	0.00000000000000	
10.49163000000000	20.83453600000000	259.18855200000002	-6.63091400000000	0.32641500000000	0.00000000000000	0.09128900000000	-60.45588600000000	624.62893699999995	-28.10144500000000	0.06158500000000	0.00000000000000	-0.08029900000000	0.00000000000000	-9.16400700000000	0.00000000000000	0.00000000000000	-12.87387200000000	0.00000000000000	
10.49329200000000	22.46353900000000	269.45442300000002	-5.84195600000000	0.32753100000000	0.00000000000000	0.09151200000000	-60.73739500000000	616.81165999999996	-27.03113400000000	0.06112500000000	0.00000000000000	-0.08002900000000	0.00000000000000	-8.94104500000000	0.00000000000000	0.00000000000000	-12.81941100000000	0.00000000000000	
10.49496000000000	24.12786100000000	279.78749399999998	-5.00366700000000	0.32857500000000	0.00000000000000	0.09172700000000	-60.98057200000000	608.83706500000005	-25.95589900000000	0.06067800000000	0.00000000000000	-0.07975400000000	0.00000000000000	-8.68934600000000	0.00000000000000	0.00000000000000	-12.75999500000000	0.00000000000000	
10.49662800000000	25.82458000000000	290.17452200000002	-4.11684200000000	0.32954600000000	0.00000000000000	0.09193400000000	-61.18346900000000	600.70778700000005	-24.87734200000000	0.06024600000000	0.00000000000000	-0.07947400000000	0.00000000000000	-8.40899000000000	0.00000000000000	0.00000000000000	-12.69529900000000	0.00000000000000	
10.49829000000000	27.55031300000000	300.60424899999998	-3.18305200000000	0.33044700000000	0.00000000000000	0.09213500000000	-61.34421800000000	592.42665099999999	-23.79708000000000	0.05982800000000	0.00000000000000	-0.07918900000000	0.00000000000000	-8.10056800000000	0.00000000000000	0.00000000000000	-12.62500900000000	0.00000000000000	
10.49995900000000	29.30131500000000	311.06716499999999	-2.20451100000000	0.33127700000000	0.00000000000000	0.09232800000000	-61.46104500000000	583.99668299999996	-22.71674800000000	0.05942500000000	0.00000000000000	-0.07889900000000	0.00000000000000	-7.76510500000000	0.00000000000000	0.00000000000000	-12.54883200000000	0.00000000000000	
